<svg width="1682" height="739" viewBox="0 0 1682 739" fill="none" xmlns="http://www.w3.org/2000/svg">
<path d="M0 96.575C0 51.3202 0 28.6928 14.0589 14.6339C28.1177 0.575012 50.7452 0.575012 96 0.575012H1586C1631.25 0.575012 1653.88 0.575012 1667.94 14.6339C1682 28.6928 1682 51.3202 1682 96.575V138.575C1682 421.418 1682 562.839 1594.13 650.707C1506.26 738.575 1364.84 738.575 1082 738.575H96C50.7452 738.575 28.1177 738.575 14.0589 724.516C0 710.457 0 687.83 0 642.575V96.575Z" fill="url(#paint0_linear_21_19)"/>
<defs>
<linearGradient id="paint0_linear_21_19" x1="119" y1="105.125" x2="740.637" y2="1427.47" gradientUnits="userSpaceOnUse">
<stop stop-color="#1D6FA3"/>
<stop offset="1" stop-color="#65FDF0"/>
</linearGradient>
</defs>
</svg>
